<?xml version="1.0" encoding="utf-8"?>
<svg version="1.1" xmlns:xlink="http://www.w3.org/1999/xlink" width="36px" height="34px" xmlns="http://www.w3.org/2000/svg">
  <defs>
    <filter x="509px" y="99px" width="36px" height="34px" filterUnits="userSpaceOnUse" id="filter141">
      <feOffset dx="1" dy="1" in="SourceAlpha" result="shadowOffsetInner" />
      <feGaussianBlur stdDeviation="2.5" in="shadowOffsetInner" result="shadowGaussian" />
      <feComposite in2="shadowGaussian" operator="atop" in="SourceAlpha" result="shadowComposite" />
      <feColorMatrix type="matrix" values="0 0 0 0 0  0 0 0 0 0  0 0 0 0 0  0 0 0 0.698039215686274 0  " in="shadowComposite" />
    </filter>
    <g id="widget142">
      <path d="M 526 103  C 533.28 103  539 108.28  539 115  C 539 121.72  533.28 127  526 127  C 518.72 127  513 121.72  513 115  C 513 108.28  518.72 103  526 103  Z " fill-rule="nonzero" fill="#02a7f0" stroke="none" />
      <path d="M 526 103.5  C 533 103.5  538.5 108.56  538.5 115  C 538.5 121.44  533 126.5  526 126.5  C 519 126.5  513.5 121.44  513.5 115  C 513.5 108.56  519 103.5  526 103.5  Z " stroke-width="1" stroke="#ffffff" fill="none" />
    </g>
  </defs>
  <g transform="matrix(1 0 0 1 -509 -99 )">
    <use xlink:href="#widget142" filter="url(#filter141)" />
    <use xlink:href="#widget142" />
  </g>
</svg>