<?xml version="1.0" encoding="utf-8"?>
<svg version="1.1" xmlns:xlink="http://www.w3.org/1999/xlink" width="36px" height="34px" xmlns="http://www.w3.org/2000/svg">
  <defs>
    <filter x="31px" y="100px" width="36px" height="34px" filterUnits="userSpaceOnUse" id="filter131">
      <feOffset dx="1" dy="1" in="SourceAlpha" result="shadowOffsetInner" />
      <feGaussianBlur stdDeviation="2.5" in="shadowOffsetInner" result="shadowGaussian" />
      <feComposite in2="shadowGaussian" operator="atop" in="SourceAlpha" result="shadowComposite" />
      <feColorMatrix type="matrix" values="0 0 0 0 0  0 0 0 0 0  0 0 0 0 0  0 0 0 0.698039215686274 0  " in="shadowComposite" />
    </filter>
    <g id="widget132">
      <path d="M 48 104  C 55.28 104  61 109.28  61 116  C 61 122.72  55.28 128  48 128  C 40.72 128  35 122.72  35 116  C 35 109.28  40.72 104  48 104  Z " fill-rule="nonzero" fill="#009dd9" stroke="none" />
      <path d="M 48 104.5  C 55 104.5  60.5 109.56  60.5 116  C 60.5 122.44  55 127.5  48 127.5  C 41 127.5  35.5 122.44  35.5 116  C 35.5 109.56  41 104.5  48 104.5  Z " stroke-width="1" stroke="#ffffff" fill="none" />
    </g>
  </defs>
  <g transform="matrix(1 0 0 1 -31 -100 )">
    <use xlink:href="#widget132" filter="url(#filter131)" />
    <use xlink:href="#widget132" />
  </g>
</svg>