<?xml version="1.0" encoding="utf-8"?>
<svg version="1.1" xmlns:xlink="http://www.w3.org/1999/xlink" width="36px" height="34px" xmlns="http://www.w3.org/2000/svg">
  <defs>
    <mask fill="white" id="clip133">
      <path d="M 0 12  C 0 5.28  5.72000000000003 0  13 0  C 17.9483207878178 0  22.175903390221 2.43942155063381  24.3763581568579 6.11236651311501  C 25.4132259867175 7.84308078644803  26 9.84768072721643  26 12  C 26 18.72  20.28 24  13 24  C 5.72000000000003 24  0 18.72  0 12  Z " fill-rule="evenodd" />
    </mask>
    <filter x="277px" y="99px" width="36px" height="34px" filterUnits="userSpaceOnUse" id="filter134">
      <feOffset dx="1" dy="1" in="SourceAlpha" result="shadowOffsetInner" />
      <feGaussianBlur stdDeviation="2.5" in="shadowOffsetInner" result="shadowGaussian" />
      <feComposite in2="shadowGaussian" operator="atop" in="SourceAlpha" result="shadowComposite" />
      <feColorMatrix type="matrix" values="0 0 0 0 0  0 0 0 0 0  0 0 0 0 0  0 0 0 0.698039215686274 0  " in="shadowComposite" />
    </filter>
    <g id="widget135">
      <path d="M 0 12  C 0 5.28  5.72000000000003 0  13 0  C 17.9483207878178 0  22.175903390221 2.43942155063381  24.3763581568579 6.11236651311501  C 25.4132259867175 7.84308078644803  26 9.84768072721643  26 12  C 26 18.72  20.28 24  13 24  C 5.72000000000003 24  0 18.72  0 12  Z " fill-rule="nonzero" fill="#ffffff" stroke="none" transform="matrix(1 0 0 1 281 103 )" />
      <path d="M 0 12  C 0 5.28  5.72000000000003 0  13 0  C 17.9483207878178 0  22.175903390221 2.43942155063381  24.3763581568579 6.11236651311501  C 25.4132259867175 7.84308078644803  26 9.84768072721643  26 12  C 26 18.72  20.28 24  13 24  C 5.72000000000003 24  0 18.72  0 12  Z " stroke-width="2" stroke="#ffffff" fill="none" transform="matrix(1 0 0 1 281 103 )" mask="url(#clip133)" />
    </g>
  </defs>
  <g transform="matrix(1 0 0 1 -277 -99 )">
    <use xlink:href="#widget135" filter="url(#filter134)" />
    <use xlink:href="#widget135" />
  </g>
</svg>