<?xml version="1.0" encoding="utf-8"?>
<svg version="1.1" xmlns:xlink="http://www.w3.org/1999/xlink" width="12px" height="12px" viewBox="496 254  12 12" xmlns="http://www.w3.org/2000/svg">
  <path d="M 502 254  C 505.36 254  508 256.64  508 260  C 508 263.36  505.36 266  502 266  C 498.64 266  496 263.36  496 260  C 496 256.64  498.64 254  502 254  Z " fill-rule="nonzero" fill="#ffffff" stroke="none" />
  <path d="M 502 254.5  C 505.08 254.5  507.5 256.92  507.5 260  C 507.5 263.08  505.08 265.5  502 265.5  C 498.92 265.5  496.5 263.08  496.5 260  C 496.5 256.92  498.92 254.5  502 254.5  Z " stroke-width="1" stroke="#797979" fill="none" />
  <path d="M 502 263  C 500.32 263  499 261.68  499 260  C 499 258.32  500.32 257  502 257  C 503.68 257  505 258.32  505 260  C 505 261.68  503.68 263  502 263  " fill-rule="nonzero" fill="#797979" stroke="none" />
</svg>