<?xml version="1.0" encoding="utf-8"?>
<svg version="1.1" xmlns:xlink="http://www.w3.org/1999/xlink" width="12px" height="12px" viewBox="496 280  12 12" xmlns="http://www.w3.org/2000/svg">
  <path d="M 502 280  C 505.36 280  508 282.64  508 286  C 508 289.36  505.36 292  502 292  C 498.64 292  496 289.36  496 286  C 496 282.64  498.64 280  502 280  Z " fill-rule="nonzero" fill="#ffffff" stroke="none" />
  <path d="M 502 280.5  C 505.08 280.5  507.5 282.92  507.5 286  C 507.5 289.08  505.08 291.5  502 291.5  C 498.92 291.5  496.5 289.08  496.5 286  C 496.5 282.92  498.92 280.5  502 280.5  Z " stroke-width="1" stroke="#797979" fill="none" />
  <path d="M 502 289  C 500.32 289  499 287.68  499 286  C 499 284.32  500.32 283  502 283  C 503.68 283  505 284.32  505 286  C 505 287.68  503.68 289  502 289  " fill-rule="nonzero" fill="#797979" stroke="none" />
</svg>