<?xml version="1.0" encoding="utf-8"?>
<svg version="1.1" xmlns:xlink="http://www.w3.org/1999/xlink" width="12px" height="12px" viewBox="243 71  12 12" xmlns="http://www.w3.org/2000/svg">
  <path d="M 249 71  C 252.36 71  255 73.64  255 77  C 255 80.36  252.36 83  249 83  C 245.64 83  243 80.36  243 77  C 243 73.64  245.64 71  249 71  Z " fill-rule="nonzero" fill="#ffffff" stroke="none" />
  <path d="M 249 71.5  C 252.08 71.5  254.5 73.92  254.5 77  C 254.5 80.08  252.08 82.5  249 82.5  C 245.92 82.5  243.5 80.08  243.5 77  C 243.5 73.92  245.92 71.5  249 71.5  Z " stroke-width="1" stroke="#797979" fill="none" />
  <path d="M 249 80  C 247.32 80  246 78.68  246 77  C 246 75.32  247.32 74  249 74  C 250.68 74  252 75.32  252 77  C 252 78.68  250.68 80  249 80  " fill-rule="nonzero" fill="#797979" stroke="none" />
</svg>