<?xml version="1.0" encoding="utf-8"?>
<svg version="1.1" xmlns:xlink="http://www.w3.org/1999/xlink" width="30px" height="30px" xmlns="http://www.w3.org/2000/svg">
  <defs>
    <filter x="16px" y="126px" width="30px" height="30px" filterUnits="userSpaceOnUse" id="filter127">
      <feOffset dx="1" dy="1" in="SourceAlpha" result="shadowOffsetInner" />
      <feGaussianBlur stdDeviation="2.5" in="shadowOffsetInner" result="shadowGaussian" />
      <feComposite in2="shadowGaussian" operator="atop" in="SourceAlpha" result="shadowComposite" />
      <feColorMatrix type="matrix" values="0 0 0 0 0  0 0 0 0 0  0 0 0 0 0  0 0 0 0.698039215686274 0  " in="shadowComposite" />
    </filter>
    <g id="widget128">
      <path d="M 30 130  C 35.6 130  40 134.4  40 140  C 40 145.6  35.6 150  30 150  C 24.4 150  20 145.6  20 140  C 20 134.4  24.4 130  30 130  Z " fill-rule="nonzero" fill="#009dd9" stroke="none" />
      <path d="M 30 130.5  C 35.32 130.5  39.5 134.68  39.5 140  C 39.5 145.32  35.32 149.5  30 149.5  C 24.68 149.5  20.5 145.32  20.5 140  C 20.5 134.68  24.68 130.5  30 130.5  Z " stroke-width="1" stroke="#ffffff" fill="none" />
    </g>
  </defs>
  <g transform="matrix(1 0 0 1 -16 -126 )">
    <use xlink:href="#widget128" filter="url(#filter127)" />
    <use xlink:href="#widget128" />
  </g>
</svg>