<?xml version="1.0" encoding="utf-8"?>
<svg version="1.1" xmlns:xlink="http://www.w3.org/1999/xlink" width="12px" height="12px" viewBox="208 344.5  12 12" xmlns="http://www.w3.org/2000/svg">
  <path d="M 214 344.5  C 217.36 344.5  220 347.14  220 350.5  C 220 353.86  217.36 356.5  214 356.5  C 210.64 356.5  208 353.86  208 350.5  C 208 347.14  210.64 344.5  214 344.5  Z " fill-rule="nonzero" fill="#ffffff" stroke="none" />
  <path d="M 214 345  C 217.08 345  219.5 347.42  219.5 350.5  C 219.5 353.58  217.08 356  214 356  C 210.92 356  208.5 353.58  208.5 350.5  C 208.5 347.42  210.92 345  214 345  Z " stroke-width="1" stroke="#797979" fill="none" />
  <path d="M 214 353.5  C 212.32 353.5  211 352.18  211 350.5  C 211 348.82  212.32 347.5  214 347.5  C 215.68 347.5  217 348.82  217 350.5  C 217 352.18  215.68 353.5  214 353.5  " fill-rule="nonzero" fill="#797979" stroke="none" />
</svg>