<?xml version="1.0" encoding="utf-8"?>
<svg version="1.1" xmlns:xlink="http://www.w3.org/1999/xlink" width="12px" height="12px" viewBox="108 375.5  12 12" xmlns="http://www.w3.org/2000/svg">
  <path d="M 114 375.5  C 117.36 375.5  120 378.14  120 381.5  C 120 384.86  117.36 387.5  114 387.5  C 110.64 387.5  108 384.86  108 381.5  C 108 378.14  110.64 375.5  114 375.5  Z " fill-rule="nonzero" fill="#ffffff" stroke="none" />
  <path d="M 114 376  C 117.08 376  119.5 378.42  119.5 381.5  C 119.5 384.58  117.08 387  114 387  C 110.92 387  108.5 384.58  108.5 381.5  C 108.5 378.42  110.92 376  114 376  Z " stroke-width="1" stroke="#797979" fill="none" />
  <path d="M 114 384.5  C 112.32 384.5  111 383.18  111 381.5  C 111 379.82  112.32 378.5  114 378.5  C 115.68 378.5  117 379.82  117 381.5  C 117 383.18  115.68 384.5  114 384.5  " fill-rule="nonzero" fill="#797979" stroke="none" />
</svg>